<?xml version="1.0" encoding="utf-8"?>
<!-- Generator: Adobe Illustrator 16.0.0, SVG Export Plug-In . SVG Version: 6.00 Build 0)  -->
<!DOCTYPE svg PUBLIC "-//W3C//DTD SVG 1.1//EN" "http://www.w3.org/Graphics/SVG/1.1/DTD/svg11.dtd">
<svg version="1.1" id="Capa_1" xmlns="http://www.w3.org/2000/svg" xmlns:xlink="http://www.w3.org/1999/xlink" x="0px" y="0px"
	 width="351.5px" height="351.5px" viewBox="260.5 260.5 351.5 351.5" enable-background="new 260.5 260.5 351.5 351.5"
	 xml:space="preserve">
<g>
	<path d="M422.001,302.523h-7.332c-3.918,0-7.094-3.176-7.094-7.094v-0.238c0-9.098-7.376-16.474-16.475-16.474h-0.381
		c-9.098,0-16.474,7.375-16.474,16.474v0.238c0,3.918-3.176,7.094-7.093,7.094h-7.332c-7.811,0-14.142,6.331-14.142,14.141v0.286
		c0,7.81,6.331,14.141,14.142,14.141h62.182c7.81,0,14.14-6.331,14.14-14.141v-0.286
		C436.143,308.854,429.812,302.523,422.001,302.523z M390.91,302.523c-3.944,0-7.141-3.198-7.141-7.142
		c0-3.944,3.197-7.142,7.141-7.142c3.945,0,7.143,3.198,7.143,7.142S394.856,302.523,390.91,302.523z M422.706,578.672H302.829
		c-10.518,0-19.044-8.526-19.044-19.044V331.09c0-10.518,8.526-19.044,14.283-19.044h38.586c-0.322,1.581-0.496,3.221-0.496,4.905
		c0,13.047,10.615,23.662,23.664,23.662h62.18c13.049,0,23.663-10.615,23.663-23.95c0-1.581-0.17-3.122-0.466-4.617h29.033
		c15.28,0,23.806,8.526,23.806,19.044v143.076c-1.582-0.099-3.153-0.24-4.761-0.24c-6.586,0-12.945,0.928-19.045,2.507V364.418
		H307.59v190.448h109.748C417.86,563.234,419.688,571.244,422.706,578.672z M493.276,488.209c-34.184,0-61.895,27.713-61.895,61.896
		c0,34.184,27.711,61.896,61.895,61.896c34.185,0,61.896-27.712,61.896-61.896C555.171,515.922,527.46,488.209,493.276,488.209z
		 M533.72,537.388l-38.089,42.851c-1.876,2.111-4.489,3.194-7.121,3.194c-2.09,0-4.191-0.684-5.944-2.088l-23.806-19.044
		c-4.106-3.283-4.773-9.276-1.486-13.382c3.282-4.11,9.278-4.776,13.384-1.488l16.745,13.396l32.084-36.095
		c3.49-3.93,9.511-4.287,13.442-0.791C536.862,527.438,537.214,533.455,533.72,537.388z M450.425,445.358h-76.179
		c-2.629,0-4.761-2.132-4.761-4.761v-4.761c0-2.63,2.132-4.762,4.761-4.762h76.179c2.629,0,4.762,2.132,4.762,4.762v4.761
		C455.186,443.227,453.054,445.358,450.425,445.358z M450.425,402.508h-76.179c-2.629,0-4.761-2.132-4.761-4.761v-4.762
		c0-2.63,2.132-4.761,4.761-4.761h76.179c2.629,0,4.762,2.132,4.762,4.761v4.762C455.186,400.377,453.054,402.508,450.425,402.508z
		 M426.619,483.448h-52.373c-2.629,0-4.761-2.132-4.761-4.761v-4.762c0-2.63,2.132-4.762,4.761-4.762h52.373
		c2.63,0,4.762,2.132,4.762,4.762v4.762C431.38,481.316,429.249,483.448,426.619,483.448z M417.097,526.299h-42.851
		c-2.63,0-4.761-2.132-4.761-4.761v-4.762c0-2.629,2.131-4.761,4.761-4.761h42.851c2.63,0,4.762,2.132,4.762,4.761v4.762
		C421.859,524.167,419.727,526.299,417.097,526.299z M360.369,384.9l-17.535,19.727c-0.863,0.973-2.066,1.471-3.278,1.471
		c-0.962,0-1.929-0.314-2.736-0.961l-10.96-8.768c-1.89-1.511-2.196-4.27-0.684-6.16c1.511-1.893,4.271-2.198,6.161-0.685
		l7.709,6.166l14.771-16.617c1.606-1.809,4.378-1.973,6.188-0.363C361.817,380.319,361.979,383.09,360.369,384.9z M360.369,427.261
		l-17.535,19.727c-0.863,0.972-2.066,1.47-3.278,1.47c-0.962,0-1.929-0.313-2.736-0.961l-10.96-8.768
		c-1.89-1.511-2.196-4.27-0.684-6.159c1.511-1.894,4.271-2.199,6.161-0.686l7.709,6.167l14.771-16.617
		c1.606-1.809,4.378-1.974,6.188-0.363C361.817,422.68,361.979,425.45,360.369,427.261z M360.369,467.771l-17.535,19.727
		c-0.863,0.972-2.066,1.471-3.278,1.471c-0.962,0-1.929-0.314-2.736-0.962l-10.96-8.768c-1.89-1.511-2.196-4.27-0.684-6.16
		c1.511-1.893,4.271-2.198,6.161-0.685l7.709,6.166l14.771-16.617c1.606-1.808,4.378-1.973,6.188-0.363
		C361.817,463.19,361.979,465.96,360.369,467.771z M360.369,508.568l-17.535,19.727c-0.863,0.972-2.066,1.471-3.278,1.471
		c-0.962,0-1.929-0.314-2.736-0.962l-10.96-8.768c-1.89-1.511-2.196-4.27-0.684-6.16c1.511-1.893,4.271-2.198,6.161-0.685
		l7.709,6.166l14.771-16.617c1.606-1.809,4.378-1.973,6.188-0.363C361.817,503.987,361.979,506.758,360.369,508.568z"/>
</g>
</svg>
