<?xml version="1.0" encoding="iso-8859-1"?>
<!-- Generator: Adobe Illustrator 16.0.0, SVG Export Plug-In . SVG Version: 6.00 Build 0)  -->
<!DOCTYPE svg PUBLIC "-//W3C//DTD SVG 1.1//EN" "http://www.w3.org/Graphics/SVG/1.1/DTD/svg11.dtd">
<svg version="1.1" id="Capa_1" xmlns="http://www.w3.org/2000/svg" xmlns:xlink="http://www.w3.org/1999/xlink" x="0px" y="0px"
	 width="44.633px" height="44.633px" viewBox="0 0 44.633 44.633" style="enable-background:new 0 0 44.633 44.633;"
	 xml:space="preserve">
<g>
	<path d="M5.905,21.526H5.9l0.016,0.039c0.36,1.307,0.861,2.555,1.505,3.717l6.657,13.11c1.462,3.607,4.302,6.24,8.14,6.24
		c3.837,0,6.205-2.811,7.693-6.406l7.21-12.797c0.681-1.197,1.213-2.482,1.589-3.837l0.028-0.066h-0.011
		c0.394-1.434,0.619-2.936,0.619-4.495C39.347,7.625,31.722,0,22.317,0C12.911,0,5.286,7.626,5.286,17.031
		C5.286,18.59,5.513,20.092,5.905,21.526z M22.317,5.285c6.487,0,11.745,5.259,11.745,11.746c0,6.486-5.258,11.744-11.745,11.744
		s-11.746-5.258-11.746-11.744C10.571,10.544,15.83,5.285,22.317,5.285z"/>
	<circle cx="22.316" cy="17.059" r="3.802"/>
</g>
<g>
</g>
<g>
</g>
<g>
</g>
<g>
</g>
<g>
</g>
<g>
</g>
<g>
</g>
<g>
</g>
<g>
</g>
<g>
</g>
<g>
</g>
<g>
</g>
<g>
</g>
<g>
</g>
<g>
</g>
</svg>
